<svg width="30" height="30" viewBox="0 0 40 40" fill="none" xmlns="http://www.w3.org/2000/svg">
<path d="M38.8686 27.3037C38.8686 29.4778 38.2075 30.9432 36.8818 31.696L36.5549 31.8576L33.1212 33.5763L31.3106 34.4834L29.5368 35.3685C30.2419 34.9682 30.7598 34.3659 31.0866 33.5653C31.3767 32.8602 31.5236 31.9935 31.5236 30.9762V30.8807C31.5053 28.8535 30.914 26.7786 29.7462 24.6485C28.56 22.4891 27.0946 20.8181 25.3539 19.6393L32.6988 15.9668C34.4396 17.1457 35.9049 18.8166 37.0911 20.9761C38.2773 23.1391 38.8686 25.2471 38.8686 27.3037Z" stroke="#191A2F" stroke-width="0.367248" stroke-linecap="round" stroke-linejoin="round"/>
<path d="M31.5236 30.8824V30.9779C31.5236 31.9952 31.3767 32.8619 31.0866 33.567C30.7598 34.3676 30.2419 34.9699 29.5368 35.3702C28.7252 35.8329 27.8071 35.9504 26.7861 35.7191H26.7824C26.1324 35.5722 25.4457 35.2857 24.7112 34.8634L21.8357 33.2034L17.3809 30.6327L12.7499 27.9591L9.56587 26.1229C9.15823 25.8879 8.7616 25.6271 8.37599 25.3443C6.58382 24.0406 5.01568 22.2301 3.67524 19.9201C2.04833 17.1106 1.23303 14.3893 1.23303 11.7525C1.23303 9.35069 1.9308 7.65034 3.31899 6.65509C3.50629 6.52289 3.69726 6.40537 3.89557 6.30621C5.17359 5.66353 6.69767 5.71127 8.4678 6.45678C8.56696 6.30988 8.66983 6.174 8.77633 6.04546C9.25375 5.47623 9.81193 5.06124 10.4583 4.79682C10.8659 4.63156 11.303 4.52506 11.7804 4.48099C13.1796 4.34878 14.7147 4.76377 16.3783 5.72596C18.6516 7.03703 20.6274 9.00915 22.3057 11.646C23.984 14.2792 25.0013 16.9454 25.3538 19.641C27.0946 20.8198 28.5599 22.4908 29.7461 24.6502C30.914 26.7803 31.5053 28.8552 31.5236 30.8824Z" fill="#BCBDFE" stroke="#191A2F" stroke-width="0.367248" stroke-linecap="round" stroke-linejoin="round"/>
<path d="M15.0452 2.50507L10.4582 4.79671C9.81187 5.06113 9.25369 5.47612 8.77627 6.04535C8.66976 6.17389 8.5669 6.30977 8.46774 6.45667C6.69761 5.71115 5.17353 5.66341 3.89551 6.3061L11.2919 2.6079C12.3679 2.08274 13.6203 2.04601 15.0452 2.50507Z" stroke="#191A2F" stroke-width="0.367248" stroke-linecap="round" stroke-linejoin="round"/>
<path d="M32.6988 15.9691L25.3538 19.6416C25.0013 16.946 23.984 14.2798 22.3057 11.6466C20.6273 9.00976 18.6515 7.03764 16.3783 5.72657C14.7147 4.76438 13.1796 4.34939 11.7804 4.4816C11.303 4.52567 10.8659 4.63217 10.4583 4.79743L15.0452 2.5058L17.2193 1.41874C17.7775 1.08088 18.4129 0.875218 19.1253 0.809114C20.5245 0.676904 22.0596 1.09189 23.7232 2.05408C25.9965 3.36516 27.9723 5.33729 29.6506 7.97413C31.3289 10.6073 32.3462 13.2735 32.6988 15.9691Z" stroke="#191A2F" stroke-width="0.367248" stroke-linecap="round" stroke-linejoin="round"/>
<path d="M3.89395 6.30664L3.86255 6.32061" stroke="#191A2F" stroke-width="0.367248" stroke-linecap="round" stroke-linejoin="round"/>
<path d="M21.1787 20.8216C21.1875 21.1625 21.0876 21.3917 20.8819 21.5092C20.6762 21.6267 20.4264 21.6003 20.1326 21.4328C19.8387 21.2624 19.589 21.0008 19.3833 20.6424L17.4704 17.3455V23.425C17.4704 23.76 17.3705 23.9862 17.1737 24.0979C16.9739 24.2125 16.73 24.1831 16.4361 24.0156C16.1423 23.8452 15.8984 23.5895 15.6986 23.2487C15.5017 22.9049 15.4018 22.567 15.4018 22.232V16.1496L15.3078 16.2054L13.8739 17.0458L13.4654 17.2868C13.2568 17.4043 13.0129 17.3808 12.7279 17.2162C12.4429 17.0517 12.199 16.7931 11.9904 16.4346C11.7847 16.0791 11.676 15.7353 11.6672 15.4033C11.6583 15.0712 11.7583 14.8479 11.9639 14.7304L12.7808 14.2573L14.4145 13.3141L15.7133 12.5619L15.7691 12.5354C15.9483 12.462 16.1717 12.5031 16.4361 12.6559C16.73 12.8234 16.9709 13.0731 17.1589 13.3993L18.0757 14.9801L20.8554 19.7726C21.0641 20.1311 21.1698 20.4808 21.1787 20.8216Z" fill="white" stroke="#191A2F" stroke-width="0.333333" stroke-linecap="round" stroke-linejoin="round"/>
</svg>
