<svg width="40" height="40" viewBox="0 0 40 40" fill="none" xmlns="http://www.w3.org/2000/svg">
<path d="M27.9495 31.7467C27.0884 30.2654 26.0512 29.1704 24.8376 28.4687C24.458 28.2518 24.0986 28.0959 23.7528 28.0043C23.4071 27.9128 23.0749 27.8755 22.7596 27.8857L19.624 22.4993L17.9189 19.5704V15.6009C18.5664 15.7569 19.1325 15.723 19.6138 15.5026L19.7088 15.4552C19.8783 15.3704 20.0376 15.2586 20.1833 15.123C20.7698 14.584 21.0647 13.7365 21.0647 12.5806C21.0647 11.1874 20.6342 9.74671 19.7732 8.26535C18.9155 6.78399 17.8783 5.69247 16.6613 4.99077C15.5461 4.34671 14.5799 4.20094 13.7664 4.56366L13.5495 4.67213C12.6885 5.16027 12.2613 6.10264 12.2613 7.49925C12.2613 8.65518 12.5529 9.83823 13.1393 11.0552C13.7258 12.2721 14.4817 13.3026 15.4037 14.1501V18.1162L14.9528 18.3738L13.4071 19.2552L11.2512 20.4823L10.5936 20.8586C10.2783 20.4857 9.94272 20.1433 9.58679 19.8281C9.23086 19.5128 8.86469 19.2484 8.48842 19.0315C7.37316 18.3874 6.40712 18.2416 5.59017 18.6043L5.37317 18.7128C4.51555 19.2009 4.08502 20.1467 4.08502 21.5399C4.08502 22.9331 4.51555 24.3738 5.37317 25.8552C6.23419 27.3399 7.27147 28.4315 8.48842 29.1331C9.70198 29.8348 10.7393 29.9399 11.6003 29.4518C12.4579 28.9603 12.8885 28.0179 12.8885 26.6213C12.8885 26.1908 12.841 25.7433 12.746 25.2789C12.6511 24.8145 12.5224 24.3535 12.3529 23.8959L12.8919 23.5874L14.7867 22.5094L16.6613 21.4416L17.1122 22.2213L19.0206 25.5128L20.9698 28.8721C20.8003 29.1331 20.6715 29.445 20.5766 29.7976C20.4817 30.1535 20.4342 30.5467 20.4342 30.9806C20.4342 32.3738 20.8647 33.8145 21.7223 35.2959C22.5833 36.7772 23.6207 37.8687 24.8376 38.5704C26.0512 39.2721 27.0884 39.3806 27.9495 38.8891C28.8071 38.4009 29.2376 37.4586 29.2376 36.062C29.2376 34.6654 28.8071 33.2281 27.9495 31.7467ZM9.82408 26.3874C9.45459 26.5942 9.01045 26.5501 8.48842 26.245C7.96299 25.9433 7.51893 25.4755 7.14944 24.845C6.78333 24.2111 6.60033 23.5942 6.60033 22.9908C6.60033 22.3874 6.78333 21.9874 7.14944 21.7772C7.51893 21.567 7.96299 21.6145 8.48842 21.9162C9.01045 22.2179 9.45459 22.6857 9.82408 23.3196C10.1902 23.9535 10.3732 24.5704 10.3732 25.1704C10.3732 25.7704 10.1902 26.1772 9.82408 26.3874ZM16.6613 12.2043C16.1359 11.9026 15.6918 11.4348 15.3257 10.8009C14.9596 10.1704 14.7766 9.55349 14.7766 8.9501C14.7766 8.34671 14.9596 7.94332 15.3257 7.73654C15.6918 7.52637 16.1359 7.57382 16.6613 7.87552C17.1868 8.17721 17.6308 8.64501 17.9969 9.27891C18.363 9.91281 18.5495 10.5298 18.5495 11.1298C18.5495 11.7298 18.363 12.1365 17.9969 12.3467C17.6308 12.5535 17.1868 12.506 16.6613 12.2043ZM26.1732 35.8247C25.8071 36.0348 25.3597 35.9874 24.8376 35.6857C24.3122 35.384 23.8681 34.9162 23.4986 34.2823C23.1325 33.6484 22.9495 33.0315 22.9495 32.4315C22.9495 31.8315 23.1325 31.4247 23.4986 31.2145C23.8681 31.0077 24.3122 31.0552 24.8376 31.3569C25.3597 31.6586 25.8071 32.1264 26.1732 32.7603C26.5393 33.3908 26.7223 34.0077 26.7223 34.6111C26.7223 35.2145 26.5393 35.6179 26.1732 35.8247Z" fill="#BCBDFE" stroke="#191A2F" stroke-width="0.338983" stroke-linecap="round" stroke-linejoin="round"/>
<path d="M10.3732 25.1705C10.3732 25.7705 10.1902 26.1773 9.82409 26.3874C9.4546 26.5942 9.01046 26.5501 8.48843 26.2451C7.963 25.9434 7.51894 25.4756 7.14944 24.8451C6.78334 24.2112 6.60034 23.5942 6.60034 22.9908C6.60034 22.3874 6.78334 21.9874 7.14944 21.7773C7.51894 21.5671 7.963 21.6145 8.48843 21.9162C9.01046 22.2179 9.4546 22.6857 9.82409 23.3196C10.1902 23.9535 10.3732 24.5705 10.3732 25.1705Z" stroke="#191A2F" stroke-width="0.338983" stroke-linecap="round" stroke-linejoin="round"/>
<path d="M26.7223 34.6126C26.7223 35.2126 26.5393 35.6193 26.1732 35.8261C25.8071 36.0363 25.3597 35.9888 24.8376 35.6871C24.3122 35.3854 23.8681 34.9176 23.4986 34.2837C23.1325 33.6498 22.9495 33.0329 22.9495 32.4329C22.9495 31.8329 23.1325 31.4261 23.4986 31.216C23.8681 31.0092 24.3122 31.0567 24.8376 31.3584C25.3597 31.66 25.8071 32.1278 26.1732 32.7617C26.5393 33.3923 26.7223 34.0092 26.7223 34.6126Z" stroke="#191A2F" stroke-width="0.338983" stroke-linecap="round" stroke-linejoin="round"/>
<path d="M18.5495 11.1295C18.5495 11.7295 18.363 12.1362 17.9969 12.3464C17.6308 12.5532 17.1868 12.5057 16.6613 12.204C16.1359 11.9023 15.6918 11.4345 15.3257 10.8007C14.9596 10.1701 14.7766 9.55319 14.7766 8.9498C14.7766 8.34641 14.9596 7.94302 15.3257 7.73624C15.6918 7.52607 16.1359 7.57353 16.6613 7.87523C17.1868 8.17692 17.6308 8.64472 17.9969 9.27862C18.363 9.91252 18.5495 10.5295 18.5495 11.1295Z" stroke="#191A2F" stroke-width="0.338983" stroke-linecap="round" stroke-linejoin="round"/>
<path d="M15.4037 15.7254V18.1152L14.9528 18.3728L13.407 19.2542L11.2511 20.4813L10.5935 20.8576C10.2783 20.4847 9.9427 20.1423 9.58677 19.8271C9.23084 19.5118 8.86467 19.2474 8.4884 19.0305C7.37314 18.3864 6.4071 18.2406 5.59015 18.6034L12.1528 15.322C13.0138 14.8305 14.0511 14.9389 15.2681 15.6406C15.3121 15.6678 15.3596 15.6949 15.4037 15.7254Z" stroke="#191A2F" stroke-width="0.338983" stroke-linecap="round" stroke-linejoin="round"/>
<path d="M29.5393 24.4949L22.7596 27.8848L19.624 22.4983L17.9189 19.5695L24.6985 16.1797L29.5393 24.4949Z" stroke="#191A2F" stroke-width="0.338983" stroke-linecap="round" stroke-linejoin="round"/>
<path d="M36.0173 32.672C36.0173 34.0686 35.5868 35.011 34.7291 35.4991L27.9495 38.889C28.8071 38.4008 29.2376 37.4584 29.2376 36.0618C29.2376 34.6652 28.8071 33.228 27.9495 31.7466C27.0885 30.2653 26.0512 29.1703 24.8376 28.4686C24.458 28.2517 24.0986 28.0958 23.7528 28.0042C23.4071 27.9127 23.0749 27.8754 22.7596 27.8856L29.5393 24.4958C29.8546 24.4856 30.1867 24.5229 30.5325 24.6144C30.8783 24.7059 31.2376 24.8619 31.6173 25.0788C32.8309 25.7805 33.8681 26.8754 34.7291 28.3568C35.5868 29.8381 36.0173 31.2788 36.0173 32.672Z" stroke="#191A2F" stroke-width="0.338983" stroke-linecap="round" stroke-linejoin="round"/>
<path d="M24.6985 12.9609V16.1813L17.9189 19.5711V15.6016C18.5663 15.7575 19.1324 15.7236 19.6138 15.5033L19.7087 15.4559L22.1833 14.2186L24.6985 12.9609Z" stroke="#191A2F" stroke-width="0.338983" stroke-linecap="round" stroke-linejoin="round"/>
<path d="M27.8444 9.1914C27.8444 10.3473 27.5494 11.1948 26.963 11.7338C26.8104 11.8761 26.6443 11.988 26.4681 12.0761L26.4274 12.0965L24.6986 12.9609L22.1833 14.2185L19.7088 15.4558C19.8783 15.3711 20.0375 15.2592 20.1833 15.1236C20.7697 14.5846 21.0647 13.7372 21.0647 12.5812C21.0647 11.188 20.6342 9.74733 19.7731 8.26598C18.9155 6.78462 17.8783 5.6931 16.6613 4.9914C15.5461 4.34733 14.5799 4.20157 13.7664 4.56428L20.3291 1.28293C21.1867 0.791407 22.224 0.899882 23.441 1.60158C24.6579 2.30327 25.6952 3.39479 26.5528 4.87615C27.4138 6.3575 27.8444 7.79818 27.8444 9.1914Z" stroke="#191A2F" stroke-width="0.338983" stroke-linecap="round" stroke-linejoin="round"/>
<path d="M19.0206 25.5126C18.8444 25.7363 18.6309 25.9193 18.38 26.0617L11.6003 29.4515C12.458 28.96 12.8885 28.0177 12.8885 26.6211C12.8885 26.1906 12.841 25.7431 12.7461 25.2787C12.6512 24.8143 12.5224 24.3532 12.3529 23.8956L12.8919 23.5871L14.7867 22.5092L16.6614 21.4414L17.1122 22.221L19.0206 25.5126Z" stroke="#191A2F" stroke-width="0.338983" stroke-linecap="round" stroke-linejoin="round"/>
</svg>
