<svg width="40" height="40" viewBox="0 0 40 40" fill="none" xmlns="http://www.w3.org/2000/svg">
<path d="M12.2907 23.2907V24.2275L0.93335 17.6702V16.7335C0.93335 15.7283 1.20004 15.0925 1.72996 14.8224L1.77445 14.8019C2.08214 14.6583 2.47529 14.6343 2.95734 14.7266C4.30433 14.9899 5.52142 15.4343 6.61202 16.0634C7.6992 16.6925 8.91968 17.6531 10.2667 18.9489C11.6137 20.2412 12.2907 21.6907 12.2907 23.2907Z" fill="#BCBDFE" stroke="#191A2F" stroke-width="0.34188" stroke-linecap="round" stroke-linejoin="round"/>
<path d="M9.4496 12.8154C9.4496 13.7112 9.17271 14.3163 8.61545 14.6342C8.58126 14.6513 8.55049 14.6684 8.5163 14.6821C7.98297 14.9419 7.34704 14.8565 6.61199 14.4325C6.06499 14.1214 5.57606 13.6804 5.14188 13.1197C4.95384 12.877 4.77264 12.6103 4.60512 12.3197C4.05128 11.359 3.77094 10.4325 3.77094 9.53679C3.77094 8.64107 4.05128 8.03594 4.60512 7.71799L4.77948 7.63252C5.30256 7.41713 5.91114 7.51628 6.61199 7.9197C7.39148 8.36756 8.0616 9.07525 8.61545 10.0325C8.85476 10.4462 9.04276 10.8565 9.1761 11.2565C9.36071 11.7864 9.4496 12.306 9.4496 12.8154Z" fill="#BCBDFE" stroke="#191A2F" stroke-width="0.34188" stroke-linecap="round" stroke-linejoin="round"/>
<path d="M15.1282 17.721C15.1282 17.9842 15.1111 18.2338 15.0804 18.4697C15.0393 18.7706 14.9709 19.0509 14.8786 19.3107C14.7145 19.7689 14.4787 20.1689 14.171 20.5073C14.1129 20.5518 14.0548 20.5928 13.9898 20.6236C13.918 20.6577 13.8427 20.6817 13.7607 20.6988C13.6068 20.733 13.4359 20.6954 13.2478 20.586C12.9641 20.4219 12.7145 20.1552 12.5026 19.7894C12.2906 19.4236 12.1846 19.0748 12.1846 18.7501C12.1846 18.586 12.2906 18.3637 12.5026 18.08C12.6906 17.9159 12.8206 17.6936 12.8924 17.4099C12.906 17.3518 12.9197 17.2936 12.9299 17.2321C12.9778 16.9996 12.9983 16.7535 12.9983 16.4936C12.9983 16.1654 12.9642 15.827 12.8924 15.4748C12.8206 15.1227 12.6906 14.7535 12.5026 14.374C12.4069 14.1825 12.3316 13.9945 12.2701 13.8133C12.212 13.6287 12.1846 13.4543 12.1846 13.2936C12.1846 13.0885 12.2189 12.921 12.2872 12.7979C12.3351 12.709 12.4 12.6407 12.4855 12.5928L12.5471 12.562C12.6291 12.5278 12.7213 12.5176 12.8205 12.5313C12.9504 12.5415 13.094 12.5962 13.2478 12.6851C13.4359 12.7945 13.6068 12.9552 13.7607 13.1671C13.9145 13.3791 14.0513 13.5979 14.171 13.8304C14.4787 14.4971 14.7145 15.1603 14.8786 15.827C15.0461 16.4936 15.1282 17.1261 15.1282 17.721Z" fill="#BCBDFE" stroke="#191A2F" stroke-width="0.34188" stroke-linecap="round" stroke-linejoin="round"/>
<path d="M19.3881 20.1828C19.3881 21.4307 19.1931 22.5452 18.8 23.5298C18.4102 24.511 17.836 25.2871 17.0804 25.8546C16.9607 25.9195 16.8376 25.9571 16.7077 25.964C16.5778 25.9708 16.4308 25.9264 16.2633 25.8307C15.9556 25.6529 15.6957 25.3862 15.4837 25.0341C15.2718 24.6785 15.1624 24.3264 15.1624 23.9742C15.1624 23.8101 15.1932 23.67 15.2513 23.5571C15.3128 23.4409 15.388 23.3418 15.4837 23.2631C15.9043 22.9623 16.2496 22.5828 16.5197 22.1144C16.6325 21.923 16.7283 21.7213 16.8137 21.5059C17.0291 20.9589 17.1658 20.3606 17.224 19.7076C17.2445 19.4751 17.2581 19.2358 17.2581 18.9896V18.952C17.2581 18.0016 17.1112 16.9862 16.8137 15.9059C16.7317 15.6016 16.6359 15.2939 16.5265 14.9862C16.2564 14.2067 15.9077 13.4238 15.4837 12.6341C15.388 12.4426 15.3128 12.2614 15.2513 12.0939C15.1932 11.923 15.1624 11.7554 15.1624 11.5948C15.1624 11.5059 15.1693 11.4272 15.183 11.352C15.183 11.352 15.183 11.3383 15.1864 11.3315C15.1932 11.2973 15.2 11.2666 15.2102 11.2324C15.2581 11.0683 15.3436 10.9486 15.4667 10.8734L15.5487 10.8324C15.6547 10.7879 15.7709 10.7811 15.9043 10.8118C15.9316 10.8153 15.9624 10.8255 15.9966 10.8358H16C16.0718 10.8631 16.147 10.8973 16.229 10.9452C16.3931 11.0409 16.547 11.1708 16.6906 11.3349C16.8308 11.499 16.9607 11.6802 17.0804 11.8854C17.8599 13.3418 18.441 14.7742 18.8205 16.1896C18.988 16.8118 19.118 17.4204 19.2069 18.0118C19.33 18.764 19.3881 19.4854 19.3881 20.1828Z" fill="#BCBDFE" stroke="#191A2F" stroke-width="0.34188" stroke-linecap="round" stroke-linejoin="round"/>
<path d="M32.1642 34.7644V35.7011L20.8069 29.1473V28.2106C20.8069 27.1029 21.1283 26.4396 21.7744 26.2242L21.7915 26.2174C22.0752 26.1251 22.4239 26.1217 22.8308 26.2003C24.1778 26.4636 25.3983 26.908 26.4855 27.5371C27.5727 28.1661 28.7932 29.1268 30.1403 30.4225C31.4873 31.7148 32.1642 33.1644 32.1642 34.7644Z" fill="#BCBDFE" stroke="#191A2F" stroke-width="0.34188" stroke-linecap="round" stroke-linejoin="round"/>
<path d="M17.2581 18.9883C17.2581 19.2345 17.2445 19.4738 17.224 19.7063C17.1658 20.3593 17.0291 20.9576 16.8137 21.5046C16.7283 21.72 16.6325 21.9217 16.5197 22.1097L12.2907 24.2259V23.2892C12.2907 21.6892 11.6137 20.2396 10.2667 18.9473C8.91965 17.6516 7.69917 16.6909 6.61199 16.0618C5.52139 15.4328 4.3043 14.9883 2.95731 14.7251C2.47526 14.6328 2.08211 14.6567 1.77441 14.8003L5.14187 13.1182C5.57606 13.6789 6.06498 14.12 6.61199 14.4311C7.34703 14.855 7.98296 14.9405 8.5163 14.6806C8.55049 14.667 8.58126 14.6499 8.61544 14.6328L12.2872 12.7969C12.2189 12.92 12.1846 13.0875 12.1846 13.2926C12.1846 13.4533 12.212 13.6276 12.2701 13.8123C12.3316 13.9935 12.4069 14.1815 12.5026 14.3729C12.6906 14.7524 12.8206 15.1217 12.8924 15.4738C12.9642 15.8259 12.9983 16.1644 12.9983 16.4926C12.9983 16.7524 12.9778 16.9986 12.9299 17.2311C12.9197 17.2926 12.906 17.3507 12.8924 17.4088C12.8206 17.6926 12.6906 17.9148 12.5026 18.0789C12.2906 18.3627 12.1846 18.5849 12.1846 18.749C12.1846 19.0738 12.2906 19.4225 12.5026 19.7883C12.7146 20.1541 12.9641 20.4208 13.2479 20.5849C13.4359 20.6943 13.6068 20.7319 13.7607 20.6977C13.8427 20.6806 13.918 20.6567 13.9898 20.6225L16.5709 19.3302L17.2581 18.9883Z" stroke="#191A2F" stroke-width="0.34188" stroke-linecap="round" stroke-linejoin="round"/>
<path d="M16.2872 9.39746C16.2872 9.8761 16.2086 10.2693 16.0445 10.5838L15.5487 10.8333L15.4667 10.8744C15.3436 10.9496 15.2581 11.0693 15.2103 11.2299L14.8752 11.4009H14.8718L12.9334 12.3684L12.5471 12.5632L12.4855 12.594C12.4 12.6419 12.3351 12.7103 12.2872 12.7991L8.61545 14.635C9.17271 14.3171 9.4496 13.712 9.4496 12.8163C9.4496 12.3069 9.36071 11.7872 9.1761 11.2573C9.04276 10.8573 8.85476 10.447 8.61545 10.0334C8.0616 9.0761 7.39148 8.36837 6.61199 7.92051C5.91114 7.51709 5.30256 7.41794 4.77948 7.63333L11.4427 4.30001C12 3.98206 12.6667 4.05044 13.4496 4.50172C14.2291 4.94958 14.8992 5.65728 15.4531 6.61454C16.0103 7.57524 16.2872 8.50174 16.2872 9.39746Z" stroke="#191A2F" stroke-width="0.34188" stroke-linecap="round" stroke-linejoin="round"/>
<path d="M26.2257 16.7647C26.2257 17.3322 26.1846 17.8656 26.1026 18.3784L24.653 19.1066L24.4787 19.1921C23.9248 19.51 23.6445 20.1152 23.6445 21.0109C23.6445 21.4827 23.7231 21.9681 23.8804 22.457L23.8291 22.481L17.0804 25.8553C17.836 25.2878 18.4102 24.5117 18.8 23.5305C19.1932 22.5459 19.3881 21.4314 19.3881 20.1835C19.3881 19.4861 19.33 18.7647 19.2069 18.016C19.118 17.4211 18.988 16.8126 18.8205 16.1904C18.441 14.775 17.8599 13.3425 17.0804 11.8861C16.9607 11.681 16.8308 11.4998 16.6906 11.3357C16.547 11.1716 16.3932 11.0417 16.229 10.9459C16.147 10.8981 16.0718 10.8639 16 10.8365H15.9966C15.9624 10.8263 15.9316 10.816 15.9043 10.8126C15.7709 10.7818 15.6547 10.7887 15.5487 10.8331L16.0445 10.5869L22.3043 7.45533C22.506 7.32541 22.759 7.34934 23.0667 7.52712C23.2308 7.62285 23.3846 7.75276 23.5282 7.91686C23.6684 8.08097 23.7983 8.26216 23.918 8.46729C24.6975 9.9237 25.2786 11.3562 25.6581 12.7716C26.0342 14.1835 26.2257 15.5134 26.2257 16.7647Z" stroke="#191A2F" stroke-width="0.34188" stroke-linecap="round" stroke-linejoin="round"/>
<path d="M29.3231 24.2897C29.3231 25.1855 29.0462 25.794 28.4889 26.1085C28.4548 26.129 28.4205 26.1461 28.3863 26.1564C27.853 26.4162 27.2171 26.3308 26.4855 25.9102C25.9419 25.5957 25.4531 25.1615 25.0223 24.6008C24.8309 24.3581 24.6496 24.088 24.4787 23.794C24.2189 23.3427 24.0171 22.8983 23.8804 22.4572C23.7231 21.9684 23.6445 21.4829 23.6445 21.0111C23.6445 20.1154 23.9248 19.5102 24.4787 19.1923L24.653 19.1068C25.0359 18.9496 25.4701 18.9598 25.9488 19.1376C26.1231 19.2025 26.3009 19.288 26.4855 19.394C27.265 19.8453 27.9351 20.5496 28.4889 21.5068C28.7283 21.9205 28.9163 22.3308 29.0496 22.7308C29.2342 23.2607 29.3231 23.7803 29.3231 24.2897Z" fill="#BCBDFE" stroke="#191A2F" stroke-width="0.34188" stroke-linecap="round" stroke-linejoin="round"/>
<path d="M17.2581 18.9521V18.9897L16.5709 19.3316L13.9898 20.6239C14.0548 20.5931 14.1129 20.5521 14.171 20.5076C14.4787 20.1692 14.7145 19.7692 14.8786 19.3111C14.9709 19.0512 15.0393 18.7709 15.0804 18.47C15.1111 18.2341 15.1282 17.9846 15.1282 17.7213C15.1282 17.1264 15.0461 16.494 14.8786 15.8273C14.7145 15.1606 14.4787 14.4974 14.171 13.8307C14.0513 13.5982 13.9145 13.3794 13.7607 13.1675C13.6068 12.9555 13.4359 12.7948 13.2478 12.6854C13.094 12.5965 12.9504 12.5418 12.8205 12.5316C12.7213 12.5179 12.6291 12.5281 12.5471 12.5623L12.9333 12.3675L14.8718 11.3999H14.8752L15.2102 11.2324C15.2 11.2666 15.1932 11.2974 15.1864 11.3316C15.183 11.3384 15.183 11.3452 15.183 11.3487C15.1693 11.4273 15.1624 11.5059 15.1624 11.5948C15.1624 11.7555 15.1932 11.923 15.2513 12.094C15.3128 12.2615 15.388 12.4427 15.4837 12.6341C15.9077 13.4239 16.2564 14.2068 16.5265 14.9863C16.6359 15.294 16.7317 15.6017 16.8137 15.9059C17.1112 16.9863 17.2581 18.0017 17.2581 18.9521Z" stroke="#191A2F" stroke-width="0.34188" stroke-linecap="round" stroke-linejoin="round"/>
<path d="M36.1607 20.8701C36.1607 21.7658 35.8838 22.3744 35.3265 22.6889L35.1521 22.7744L32.9128 23.8957L28.4889 26.1077C29.0462 25.7932 29.3231 25.1846 29.3231 24.2889C29.3231 23.7795 29.2342 23.2598 29.0496 22.7299C28.9162 22.3299 28.7282 21.9197 28.4889 21.506C27.9351 20.5487 27.2649 19.8445 26.4855 19.3932C26.3008 19.2872 26.1231 19.2017 25.9487 19.1368C25.4701 18.959 25.0359 18.9487 24.653 19.106L26.1026 18.3812L31.3163 15.7727C31.8735 15.4547 32.5402 15.5231 33.3231 15.9744C34.1026 16.4257 34.7726 17.1299 35.3265 18.0872C35.8838 19.0479 36.1607 19.9744 36.1607 20.8701Z" stroke="#191A2F" stroke-width="0.34188" stroke-linecap="round" stroke-linejoin="round"/>
<path d="M39.0017 31.3441V32.2809L32.1641 35.6997V34.7629C32.1641 33.1629 31.4872 31.7133 30.1402 30.421C28.7932 29.1253 27.5726 28.1646 26.4855 27.5356C25.3983 26.9065 24.1778 26.4621 22.8308 26.1988C22.4239 26.1202 22.0752 26.1236 21.7914 26.2159L25.0223 24.5988C25.453 25.1595 25.9419 25.5937 26.4855 25.9082C27.2171 26.3287 27.853 26.4142 28.3863 26.1544C28.4205 26.1441 28.4547 26.127 28.4889 26.1065L32.9128 23.8945C33.053 23.9629 33.1897 24.0381 33.3231 24.1168C34.4102 24.7458 35.6308 25.7065 36.9778 27.0022C38.3248 28.2945 39.0017 29.7441 39.0017 31.3441Z" stroke="#191A2F" stroke-width="0.34188" stroke-linecap="round" stroke-linejoin="round"/>
<path d="M21.7745 26.2246L21.6104 26.3067" stroke="#191A2F" stroke-width="0.34188" stroke-linecap="round" stroke-linejoin="round"/>
</svg>
